<mxfile host="app.diagrams.net" modified="2024-05-19T18:41:00.832Z" agent="Mozilla/5.0 (Windows NT 10.0; Win64; x64) AppleWebKit/537.36 (KHTML, like Gecko) Chrome/124.0.0.0 Safari/537.36" etag="_UDC49qFPhkyAkU3q6-i" version="24.4.4" type="google" pages="3">
  <diagram name="doctors" id="dINHeDxJtUWtR5SlrQX7">
    <mxGraphModel dx="2670" dy="807" grid="1" gridSize="10" guides="1" tooltips="1" connect="1" arrows="1" fold="1" page="1" pageScale="1" pageWidth="827" pageHeight="1169" math="0" shadow="0">
      <root>
        <mxCell id="0" />
        <mxCell id="1" parent="0" />
        <mxCell id="2BDK5TFJ5udhKDxVLSZ_-1" style="edgeStyle=none;curved=1;rounded=0;orthogonalLoop=1;jettySize=auto;html=1;exitX=0;exitY=0.5;exitDx=0;exitDy=0;fontSize=12;startSize=8;endSize=8;" edge="1" parent="1" source="2BDK5TFJ5udhKDxVLSZ_-2" target="2BDK5TFJ5udhKDxVLSZ_-4">
          <mxGeometry relative="1" as="geometry" />
        </mxCell>
        <mxCell id="2BDK5TFJ5udhKDxVLSZ_-2" value="&lt;font style=&quot;font-size: 16px;&quot;&gt;doctor 1&lt;/font&gt;" style="ellipse;whiteSpace=wrap;html=1;aspect=fixed;" vertex="1" parent="1">
          <mxGeometry x="23" y="135" width="80" height="80" as="geometry" />
        </mxCell>
        <mxCell id="2BDK5TFJ5udhKDxVLSZ_-3" style="edgeStyle=none;curved=1;rounded=0;orthogonalLoop=1;jettySize=auto;html=1;exitX=0.5;exitY=1;exitDx=0;exitDy=0;fontSize=12;startSize=8;endSize=8;" edge="1" parent="1" source="2BDK5TFJ5udhKDxVLSZ_-4" target="2BDK5TFJ5udhKDxVLSZ_-18">
          <mxGeometry relative="1" as="geometry" />
        </mxCell>
        <mxCell id="2BDK5TFJ5udhKDxVLSZ_-4" value="&lt;font style=&quot;font-size: 16px;&quot;&gt;doctor 2&lt;/font&gt;" style="ellipse;whiteSpace=wrap;html=1;aspect=fixed;" vertex="1" parent="1">
          <mxGeometry x="-95" y="132" width="80" height="80" as="geometry" />
        </mxCell>
        <mxCell id="2BDK5TFJ5udhKDxVLSZ_-5" style="edgeStyle=none;curved=1;rounded=0;orthogonalLoop=1;jettySize=auto;html=1;exitX=0;exitY=0.5;exitDx=0;exitDy=0;fontSize=12;startSize=8;endSize=8;" edge="1" parent="1" source="2BDK5TFJ5udhKDxVLSZ_-7" target="2BDK5TFJ5udhKDxVLSZ_-2">
          <mxGeometry relative="1" as="geometry" />
        </mxCell>
        <mxCell id="2BDK5TFJ5udhKDxVLSZ_-6" style="edgeStyle=none;curved=1;rounded=0;orthogonalLoop=1;jettySize=auto;html=1;exitX=1;exitY=0.5;exitDx=0;exitDy=0;fontSize=12;startSize=8;endSize=8;" edge="1" parent="1" source="2BDK5TFJ5udhKDxVLSZ_-7" target="2BDK5TFJ5udhKDxVLSZ_-14">
          <mxGeometry relative="1" as="geometry" />
        </mxCell>
        <mxCell id="2BDK5TFJ5udhKDxVLSZ_-7" value="&lt;font style=&quot;font-size: 16px;&quot;&gt;doctor 3&lt;/font&gt;" style="ellipse;whiteSpace=wrap;html=1;aspect=fixed;" vertex="1" parent="1">
          <mxGeometry x="166" y="141" width="80" height="80" as="geometry" />
        </mxCell>
        <mxCell id="2BDK5TFJ5udhKDxVLSZ_-8" style="edgeStyle=none;curved=1;rounded=0;orthogonalLoop=1;jettySize=auto;html=1;fontSize=12;startSize=8;endSize=8;" edge="1" parent="1" target="2BDK5TFJ5udhKDxVLSZ_-4" source="2BDK5TFJ5udhKDxVLSZ_-9">
          <mxGeometry relative="1" as="geometry">
            <mxPoint x="-157" y="180" as="sourcePoint" />
          </mxGeometry>
        </mxCell>
        <mxCell id="2BDK5TFJ5udhKDxVLSZ_-9" value="&lt;font style=&quot;font-size: 16px;&quot;&gt;doctor 4&lt;/font&gt;" style="ellipse;whiteSpace=wrap;html=1;aspect=fixed;" vertex="1" parent="1">
          <mxGeometry x="-210" y="175" width="80" height="80" as="geometry" />
        </mxCell>
        <mxCell id="2BDK5TFJ5udhKDxVLSZ_-10" style="edgeStyle=none;curved=1;rounded=0;orthogonalLoop=1;jettySize=auto;html=1;entryX=0.072;entryY=0.755;entryDx=0;entryDy=0;fontSize=12;startSize=8;endSize=8;entryPerimeter=0;" edge="1" parent="1" source="2BDK5TFJ5udhKDxVLSZ_-11" target="2BDK5TFJ5udhKDxVLSZ_-9">
          <mxGeometry relative="1" as="geometry" />
        </mxCell>
        <mxCell id="2BDK5TFJ5udhKDxVLSZ_-11" value="&lt;font style=&quot;font-size: 16px;&quot;&gt;doctor 5&lt;/font&gt;" style="ellipse;whiteSpace=wrap;html=1;aspect=fixed;" vertex="1" parent="1">
          <mxGeometry x="-310" y="250" width="80" height="80" as="geometry" />
        </mxCell>
        <mxCell id="2BDK5TFJ5udhKDxVLSZ_-12" style="edgeStyle=none;curved=1;rounded=0;orthogonalLoop=1;jettySize=auto;html=1;fontSize=12;startSize=8;endSize=8;" edge="1" parent="1" source="2BDK5TFJ5udhKDxVLSZ_-14" target="2BDK5TFJ5udhKDxVLSZ_-15">
          <mxGeometry relative="1" as="geometry" />
        </mxCell>
        <mxCell id="2BDK5TFJ5udhKDxVLSZ_-13" style="edgeStyle=none;curved=1;rounded=0;orthogonalLoop=1;jettySize=auto;html=1;fontSize=12;startSize=8;endSize=8;exitX=0;exitY=0.5;exitDx=0;exitDy=0;" edge="1" parent="1" source="2BDK5TFJ5udhKDxVLSZ_-14">
          <mxGeometry relative="1" as="geometry">
            <mxPoint x="300" y="120" as="targetPoint" />
          </mxGeometry>
        </mxCell>
        <mxCell id="2BDK5TFJ5udhKDxVLSZ_-14" value="&lt;font style=&quot;font-size: 16px;&quot;&gt;doctor 6&lt;/font&gt;" style="ellipse;whiteSpace=wrap;html=1;aspect=fixed;" vertex="1" parent="1">
          <mxGeometry x="310" y="147" width="80" height="80" as="geometry" />
        </mxCell>
        <mxCell id="2BDK5TFJ5udhKDxVLSZ_-15" value="&lt;font style=&quot;font-size: 16px;&quot;&gt;doctor 7&lt;/font&gt;" style="ellipse;whiteSpace=wrap;html=1;aspect=fixed;" vertex="1" parent="1">
          <mxGeometry x="414" y="200" width="80" height="80" as="geometry" />
        </mxCell>
        <mxCell id="2BDK5TFJ5udhKDxVLSZ_-16" style="edgeStyle=none;curved=1;rounded=0;orthogonalLoop=1;jettySize=auto;html=1;exitX=0.5;exitY=0;exitDx=0;exitDy=0;entryX=1;entryY=0.5;entryDx=0;entryDy=0;fontSize=12;startSize=8;endSize=8;" edge="1" parent="1" source="2BDK5TFJ5udhKDxVLSZ_-17" target="2BDK5TFJ5udhKDxVLSZ_-7">
          <mxGeometry relative="1" as="geometry" />
        </mxCell>
        <mxCell id="2BDK5TFJ5udhKDxVLSZ_-17" value="&lt;font style=&quot;font-size: 16px;&quot;&gt;doctor 8&lt;/font&gt;" style="ellipse;whiteSpace=wrap;html=1;aspect=fixed;" vertex="1" parent="1">
          <mxGeometry x="246" y="40" width="80" height="80" as="geometry" />
        </mxCell>
        <mxCell id="2BDK5TFJ5udhKDxVLSZ_-18" value="&lt;font style=&quot;font-size: 16px;&quot;&gt;doctor 9&lt;/font&gt;" style="ellipse;whiteSpace=wrap;html=1;aspect=fixed;" vertex="1" parent="1">
          <mxGeometry x="-95" y="20" width="80" height="80" as="geometry" />
        </mxCell>
        <mxCell id="2BDK5TFJ5udhKDxVLSZ_-19" style="edgeStyle=none;curved=1;rounded=0;orthogonalLoop=1;jettySize=auto;html=1;fontSize=12;startSize=8;endSize=8;exitX=0.667;exitY=0.058;exitDx=0;exitDy=0;exitPerimeter=0;" edge="1" parent="1" source="2BDK5TFJ5udhKDxVLSZ_-20" target="2BDK5TFJ5udhKDxVLSZ_-11">
          <mxGeometry relative="1" as="geometry">
            <mxPoint x="63" y="265" as="sourcePoint" />
          </mxGeometry>
        </mxCell>
        <mxCell id="2BDK5TFJ5udhKDxVLSZ_-20" value="&lt;font style=&quot;font-size: 16px;&quot;&gt;doctor 10&lt;/font&gt;" style="ellipse;whiteSpace=wrap;html=1;aspect=fixed;" vertex="1" parent="1">
          <mxGeometry x="-380" y="370" width="80" height="80" as="geometry" />
        </mxCell>
      </root>
    </mxGraphModel>
  </diagram>
  <diagram id="MOX1vQGtmyJxFK-yRl4V" name="patients">
    <mxGraphModel dx="2977" dy="942" grid="1" gridSize="10" guides="1" tooltips="1" connect="1" arrows="1" fold="1" page="1" pageScale="1" pageWidth="827" pageHeight="1169" math="0" shadow="0">
      <root>
        <mxCell id="0" />
        <mxCell id="1" parent="0" />
        <mxCell id="UX89asESWpNPsfGNYAxy-1" value="&lt;span style=&quot;font-size: 16px;&quot;&gt;doctor 1&lt;/span&gt;" style="ellipse;whiteSpace=wrap;html=1;aspect=fixed;" vertex="1" parent="1">
          <mxGeometry x="-353" y="511" width="80" height="80" as="geometry" />
        </mxCell>
        <mxCell id="UX89asESWpNPsfGNYAxy-2" value="&lt;span style=&quot;font-size: 16px;&quot;&gt;doctor 2&lt;/span&gt;" style="ellipse;whiteSpace=wrap;html=1;aspect=fixed;" vertex="1" parent="1">
          <mxGeometry x="-585" y="784" width="80" height="80" as="geometry" />
        </mxCell>
        <mxCell id="UX89asESWpNPsfGNYAxy-3" value="&lt;span style=&quot;font-size: 16px;&quot;&gt;doctor 3&lt;/span&gt;" style="ellipse;whiteSpace=wrap;html=1;aspect=fixed;" vertex="1" parent="1">
          <mxGeometry x="-390" y="791" width="80" height="80" as="geometry" />
        </mxCell>
        <mxCell id="UX89asESWpNPsfGNYAxy-4" value="&lt;span style=&quot;font-size: 16px;&quot;&gt;doctor 4&lt;/span&gt;" style="ellipse;whiteSpace=wrap;html=1;aspect=fixed;" vertex="1" parent="1">
          <mxGeometry x="-446" y="1053" width="80" height="80" as="geometry" />
        </mxCell>
        <mxCell id="UX89asESWpNPsfGNYAxy-5" value="&lt;span style=&quot;font-size: 16px;&quot;&gt;doctor 9&lt;/span&gt;" style="ellipse;whiteSpace=wrap;html=1;aspect=fixed;" vertex="1" parent="1">
          <mxGeometry x="-540" y="511" width="80" height="80" as="geometry" />
        </mxCell>
        <mxCell id="UX89asESWpNPsfGNYAxy-6" style="edgeStyle=none;curved=1;rounded=0;orthogonalLoop=1;jettySize=auto;html=1;exitX=0.5;exitY=0;exitDx=0;exitDy=0;entryX=0.5;entryY=1;entryDx=0;entryDy=0;fontSize=12;startSize=8;endSize=8;" edge="1" parent="1" source="UX89asESWpNPsfGNYAxy-8" target="UX89asESWpNPsfGNYAxy-1">
          <mxGeometry relative="1" as="geometry" />
        </mxCell>
        <mxCell id="UX89asESWpNPsfGNYAxy-7" style="edgeStyle=none;curved=1;rounded=0;orthogonalLoop=1;jettySize=auto;html=1;exitX=0.5;exitY=0;exitDx=0;exitDy=0;fontSize=12;startSize=8;endSize=8;entryX=0.5;entryY=1;entryDx=0;entryDy=0;" edge="1" parent="1" source="UX89asESWpNPsfGNYAxy-8" target="UX89asESWpNPsfGNYAxy-5">
          <mxGeometry relative="1" as="geometry" />
        </mxCell>
        <mxCell id="UX89asESWpNPsfGNYAxy-8" value="&lt;span style=&quot;font-size: 16px;&quot;&gt;patient 1&lt;/span&gt;" style="whiteSpace=wrap;html=1;aspect=fixed;" vertex="1" parent="1">
          <mxGeometry x="-453" y="662" width="80" height="80" as="geometry" />
        </mxCell>
        <mxCell id="UX89asESWpNPsfGNYAxy-9" style="edgeStyle=none;curved=1;rounded=0;orthogonalLoop=1;jettySize=auto;html=1;exitX=0.5;exitY=0;exitDx=0;exitDy=0;entryX=0.5;entryY=1;entryDx=0;entryDy=0;fontSize=12;startSize=8;endSize=8;" edge="1" parent="1" source="UX89asESWpNPsfGNYAxy-10" target="UX89asESWpNPsfGNYAxy-2">
          <mxGeometry relative="1" as="geometry" />
        </mxCell>
        <mxCell id="UX89asESWpNPsfGNYAxy-10" value="&lt;span style=&quot;font-size: 16px;&quot;&gt;patient 2&lt;/span&gt;" style="whiteSpace=wrap;html=1;aspect=fixed;" vertex="1" parent="1">
          <mxGeometry x="-585" y="931" width="80" height="80" as="geometry" />
        </mxCell>
        <mxCell id="UX89asESWpNPsfGNYAxy-11" style="edgeStyle=none;curved=1;rounded=0;orthogonalLoop=1;jettySize=auto;html=1;exitX=0.5;exitY=0;exitDx=0;exitDy=0;entryX=0.5;entryY=1;entryDx=0;entryDy=0;fontSize=12;startSize=8;endSize=8;" edge="1" parent="1" source="UX89asESWpNPsfGNYAxy-12" target="UX89asESWpNPsfGNYAxy-3">
          <mxGeometry relative="1" as="geometry" />
        </mxCell>
        <mxCell id="UX89asESWpNPsfGNYAxy-12" value="&lt;span style=&quot;font-size: 16px;&quot;&gt;patient 3&lt;/span&gt;" style="whiteSpace=wrap;html=1;aspect=fixed;" vertex="1" parent="1">
          <mxGeometry x="-447" y="926" width="80" height="80" as="geometry" />
        </mxCell>
        <mxCell id="UX89asESWpNPsfGNYAxy-13" style="edgeStyle=none;curved=1;rounded=0;orthogonalLoop=1;jettySize=auto;html=1;exitX=0.5;exitY=0;exitDx=0;exitDy=0;entryX=0.5;entryY=1;entryDx=0;entryDy=0;fontSize=12;startSize=8;endSize=8;" edge="1" parent="1" source="UX89asESWpNPsfGNYAxy-14" target="UX89asESWpNPsfGNYAxy-3">
          <mxGeometry relative="1" as="geometry" />
        </mxCell>
        <mxCell id="UX89asESWpNPsfGNYAxy-14" value="&lt;span style=&quot;font-size: 16px;&quot;&gt;patient 4&lt;/span&gt;" style="whiteSpace=wrap;html=1;aspect=fixed;" vertex="1" parent="1">
          <mxGeometry x="-340" y="920" width="80" height="80" as="geometry" />
        </mxCell>
        <mxCell id="UX89asESWpNPsfGNYAxy-15" style="edgeStyle=none;curved=1;rounded=0;orthogonalLoop=1;jettySize=auto;html=1;exitX=0.5;exitY=0;exitDx=0;exitDy=0;entryX=0.5;entryY=1;entryDx=0;entryDy=0;fontSize=12;startSize=8;endSize=8;" edge="1" parent="1" source="UX89asESWpNPsfGNYAxy-16" target="UX89asESWpNPsfGNYAxy-1">
          <mxGeometry relative="1" as="geometry" />
        </mxCell>
        <mxCell id="UX89asESWpNPsfGNYAxy-16" value="&lt;span style=&quot;font-size: 16px;&quot;&gt;patient 5&lt;/span&gt;" style="whiteSpace=wrap;html=1;aspect=fixed;" vertex="1" parent="1">
          <mxGeometry x="-227" y="662" width="80" height="80" as="geometry" />
        </mxCell>
        <mxCell id="UX89asESWpNPsfGNYAxy-17" style="edgeStyle=none;curved=1;rounded=0;orthogonalLoop=1;jettySize=auto;html=1;exitX=0.5;exitY=0;exitDx=0;exitDy=0;entryX=0.5;entryY=1;entryDx=0;entryDy=0;fontSize=12;startSize=8;endSize=8;" edge="1" parent="1" source="UX89asESWpNPsfGNYAxy-18" target="UX89asESWpNPsfGNYAxy-4">
          <mxGeometry relative="1" as="geometry" />
        </mxCell>
        <mxCell id="UX89asESWpNPsfGNYAxy-18" value="&lt;span style=&quot;font-size: 16px;&quot;&gt;patient 6&lt;/span&gt;" style="whiteSpace=wrap;html=1;aspect=fixed;" vertex="1" parent="1">
          <mxGeometry x="-433" y="1189" width="80" height="80" as="geometry" />
        </mxCell>
        <mxCell id="UX89asESWpNPsfGNYAxy-19" style="edgeStyle=none;curved=1;rounded=0;orthogonalLoop=1;jettySize=auto;html=1;exitX=0.5;exitY=0;exitDx=0;exitDy=0;fontSize=12;startSize=8;endSize=8;" edge="1" parent="1" source="UX89asESWpNPsfGNYAxy-20" target="UX89asESWpNPsfGNYAxy-4">
          <mxGeometry relative="1" as="geometry" />
        </mxCell>
        <mxCell id="UX89asESWpNPsfGNYAxy-20" value="&lt;span style=&quot;font-size: 16px;&quot;&gt;patient 7&lt;/span&gt;" style="whiteSpace=wrap;html=1;aspect=fixed;" vertex="1" parent="1">
          <mxGeometry x="-560" y="1189" width="80" height="80" as="geometry" />
        </mxCell>
        <mxCell id="UX89asESWpNPsfGNYAxy-21" style="edgeStyle=none;curved=1;rounded=0;orthogonalLoop=1;jettySize=auto;html=1;exitX=0.5;exitY=0;exitDx=0;exitDy=0;entryX=0.5;entryY=1;entryDx=0;entryDy=0;fontSize=12;startSize=8;endSize=8;" edge="1" parent="1" source="UX89asESWpNPsfGNYAxy-22" target="UX89asESWpNPsfGNYAxy-1">
          <mxGeometry relative="1" as="geometry" />
        </mxCell>
        <mxCell id="UX89asESWpNPsfGNYAxy-22" value="&lt;span style=&quot;font-size: 16px;&quot;&gt;patient 8&lt;/span&gt;" style="whiteSpace=wrap;html=1;aspect=fixed;" vertex="1" parent="1">
          <mxGeometry x="-340" y="662" width="80" height="80" as="geometry" />
        </mxCell>
        <mxCell id="UX89asESWpNPsfGNYAxy-23" style="edgeStyle=none;curved=1;rounded=0;orthogonalLoop=1;jettySize=auto;html=1;exitX=0.5;exitY=0;exitDx=0;exitDy=0;entryX=0.986;entryY=0.686;entryDx=0;entryDy=0;fontSize=12;startSize=8;endSize=8;entryPerimeter=0;" edge="1" parent="1" source="UX89asESWpNPsfGNYAxy-24" target="UX89asESWpNPsfGNYAxy-4">
          <mxGeometry relative="1" as="geometry" />
        </mxCell>
        <mxCell id="UX89asESWpNPsfGNYAxy-24" value="&lt;span style=&quot;font-size: 16px;&quot;&gt;patient 9&lt;/span&gt;" style="whiteSpace=wrap;html=1;aspect=fixed;" vertex="1" parent="1">
          <mxGeometry x="-307" y="1189" width="80" height="80" as="geometry" />
        </mxCell>
        <mxCell id="UX89asESWpNPsfGNYAxy-25" style="edgeStyle=none;curved=1;rounded=0;orthogonalLoop=1;jettySize=auto;html=1;exitX=0.5;exitY=0;exitDx=0;exitDy=0;fontSize=12;startSize=8;endSize=8;entryX=0.5;entryY=1;entryDx=0;entryDy=0;" edge="1" parent="1" source="UX89asESWpNPsfGNYAxy-26" target="UX89asESWpNPsfGNYAxy-5">
          <mxGeometry relative="1" as="geometry" />
        </mxCell>
        <mxCell id="UX89asESWpNPsfGNYAxy-26" value="&lt;span style=&quot;font-size: 16px;&quot;&gt;patient 10&lt;/span&gt;" style="whiteSpace=wrap;html=1;aspect=fixed;" vertex="1" parent="1">
          <mxGeometry x="-581" y="662" width="80" height="80" as="geometry" />
        </mxCell>
      </root>
    </mxGraphModel>
  </diagram>
  <diagram id="t1M_-sDH6_MO-M3eQ_Ri" name="wards">
    <mxGraphModel dx="3804" dy="942" grid="1" gridSize="10" guides="1" tooltips="1" connect="1" arrows="1" fold="1" page="1" pageScale="1" pageWidth="827" pageHeight="1169" math="0" shadow="0">
      <root>
        <mxCell id="0" />
        <mxCell id="1" parent="0" />
        <mxCell id="lPiCXAMXpNaBVZBqr2GV-1" value="&lt;span style=&quot;font-size: 16px;&quot;&gt;ward 1&lt;/span&gt;" style="ellipse;whiteSpace=wrap;html=1;aspect=fixed;" vertex="1" parent="1">
          <mxGeometry x="-1215" y="990" width="80" height="80" as="geometry" />
        </mxCell>
        <mxCell id="lPiCXAMXpNaBVZBqr2GV-2" value="&lt;span style=&quot;font-size: 16px;&quot;&gt;ward 6&lt;/span&gt;" style="ellipse;whiteSpace=wrap;html=1;aspect=fixed;" vertex="1" parent="1">
          <mxGeometry x="-1108" y="538" width="80" height="80" as="geometry" />
        </mxCell>
        <mxCell id="lPiCXAMXpNaBVZBqr2GV-3" value="&lt;span style=&quot;font-size: 16px;&quot;&gt;ward 3&lt;/span&gt;" style="ellipse;whiteSpace=wrap;html=1;aspect=fixed;" vertex="1" parent="1">
          <mxGeometry x="-1330" y="990" width="80" height="80" as="geometry" />
        </mxCell>
        <mxCell id="lPiCXAMXpNaBVZBqr2GV-4" value="&lt;span style=&quot;font-size: 16px;&quot;&gt;ward 2&lt;/span&gt;" style="ellipse;whiteSpace=wrap;html=1;aspect=fixed;" vertex="1" parent="1">
          <mxGeometry x="-1255" y="774" width="80" height="80" as="geometry" />
        </mxCell>
        <mxCell id="lPiCXAMXpNaBVZBqr2GV-5" style="edgeStyle=none;curved=1;rounded=0;orthogonalLoop=1;jettySize=auto;html=1;exitX=0.5;exitY=0;exitDx=0;exitDy=0;entryX=0.5;entryY=1;entryDx=0;entryDy=0;fontSize=12;startSize=8;endSize=8;" edge="1" parent="1" source="lPiCXAMXpNaBVZBqr2GV-6" target="lPiCXAMXpNaBVZBqr2GV-24">
          <mxGeometry relative="1" as="geometry" />
        </mxCell>
        <mxCell id="lPiCXAMXpNaBVZBqr2GV-6" value="&lt;span style=&quot;font-size: 16px;&quot;&gt;patient 3&lt;/span&gt;" style="whiteSpace=wrap;html=1;aspect=fixed;" vertex="1" parent="1">
          <mxGeometry x="-1108" y="881" width="80" height="80" as="geometry" />
        </mxCell>
        <mxCell id="lPiCXAMXpNaBVZBqr2GV-7" style="edgeStyle=none;curved=1;rounded=0;orthogonalLoop=1;jettySize=auto;html=1;exitX=0.5;exitY=0;exitDx=0;exitDy=0;entryX=0.5;entryY=1;entryDx=0;entryDy=0;fontSize=12;startSize=8;endSize=8;" edge="1" parent="1" source="lPiCXAMXpNaBVZBqr2GV-9" target="lPiCXAMXpNaBVZBqr2GV-2">
          <mxGeometry relative="1" as="geometry" />
        </mxCell>
        <mxCell id="lPiCXAMXpNaBVZBqr2GV-9" value="&lt;span style=&quot;font-size: 16px;&quot;&gt;patient 1&lt;/span&gt;" style="whiteSpace=wrap;html=1;aspect=fixed;" vertex="1" parent="1">
          <mxGeometry x="-1113" y="663" width="80" height="80" as="geometry" />
        </mxCell>
        <mxCell id="lPiCXAMXpNaBVZBqr2GV-10" style="edgeStyle=none;curved=1;rounded=0;orthogonalLoop=1;jettySize=auto;html=1;exitX=0.5;exitY=0;exitDx=0;exitDy=0;entryX=0.5;entryY=1;entryDx=0;entryDy=0;fontSize=12;startSize=8;endSize=8;" edge="1" parent="1" source="lPiCXAMXpNaBVZBqr2GV-11" target="lPiCXAMXpNaBVZBqr2GV-25">
          <mxGeometry relative="1" as="geometry" />
        </mxCell>
        <mxCell id="lPiCXAMXpNaBVZBqr2GV-11" value="&lt;span style=&quot;font-size: 16px;&quot;&gt;patient 6&lt;/span&gt;" style="whiteSpace=wrap;html=1;aspect=fixed;" vertex="1" parent="1">
          <mxGeometry x="-1292" y="665" width="80" height="80" as="geometry" />
        </mxCell>
        <mxCell id="lPiCXAMXpNaBVZBqr2GV-12" style="edgeStyle=none;curved=1;rounded=0;orthogonalLoop=1;jettySize=auto;html=1;exitX=0.5;exitY=0;exitDx=0;exitDy=0;entryX=1;entryY=1;entryDx=0;entryDy=0;fontSize=12;startSize=8;endSize=8;" edge="1" parent="1" source="lPiCXAMXpNaBVZBqr2GV-13" target="lPiCXAMXpNaBVZBqr2GV-4">
          <mxGeometry relative="1" as="geometry" />
        </mxCell>
        <mxCell id="lPiCXAMXpNaBVZBqr2GV-13" value="&lt;span style=&quot;font-size: 16px;&quot;&gt;patient 7&lt;/span&gt;" style="whiteSpace=wrap;html=1;aspect=fixed;" vertex="1" parent="1">
          <mxGeometry x="-1212" y="881" width="80" height="80" as="geometry" />
        </mxCell>
        <mxCell id="lPiCXAMXpNaBVZBqr2GV-14" style="edgeStyle=none;curved=1;rounded=0;orthogonalLoop=1;jettySize=auto;html=1;exitX=0.5;exitY=0;exitDx=0;exitDy=0;fontSize=12;startSize=8;endSize=8;" edge="1" parent="1" source="lPiCXAMXpNaBVZBqr2GV-15" target="lPiCXAMXpNaBVZBqr2GV-3">
          <mxGeometry relative="1" as="geometry" />
        </mxCell>
        <mxCell id="lPiCXAMXpNaBVZBqr2GV-15" value="&lt;span style=&quot;font-size: 16px;&quot;&gt;patient 4&lt;/span&gt;" style="whiteSpace=wrap;html=1;aspect=fixed;" vertex="1" parent="1">
          <mxGeometry x="-1333" y="1097" width="80" height="80" as="geometry" />
        </mxCell>
        <mxCell id="lPiCXAMXpNaBVZBqr2GV-16" style="edgeStyle=none;curved=1;rounded=0;orthogonalLoop=1;jettySize=auto;html=1;exitX=0.5;exitY=0;exitDx=0;exitDy=0;entryX=0.5;entryY=1;entryDx=0;entryDy=0;fontSize=12;startSize=8;endSize=8;" edge="1" parent="1" source="lPiCXAMXpNaBVZBqr2GV-17" target="lPiCXAMXpNaBVZBqr2GV-27">
          <mxGeometry relative="1" as="geometry" />
        </mxCell>
        <mxCell id="lPiCXAMXpNaBVZBqr2GV-17" value="&lt;span style=&quot;font-size: 16px;&quot;&gt;patient 9&lt;/span&gt;" style="whiteSpace=wrap;html=1;aspect=fixed;" vertex="1" parent="1">
          <mxGeometry x="-1101" y="1096" width="80" height="80" as="geometry" />
        </mxCell>
        <mxCell id="lPiCXAMXpNaBVZBqr2GV-18" style="edgeStyle=none;curved=1;rounded=0;orthogonalLoop=1;jettySize=auto;html=1;exitX=0.5;exitY=0;exitDx=0;exitDy=0;entryX=0.5;entryY=1;entryDx=0;entryDy=0;fontSize=12;startSize=8;endSize=8;" edge="1" parent="1" source="lPiCXAMXpNaBVZBqr2GV-19" target="lPiCXAMXpNaBVZBqr2GV-1">
          <mxGeometry relative="1" as="geometry" />
        </mxCell>
        <mxCell id="lPiCXAMXpNaBVZBqr2GV-19" value="&lt;span style=&quot;font-size: 16px;&quot;&gt;patient 5&lt;/span&gt;" style="whiteSpace=wrap;html=1;aspect=fixed;" vertex="1" parent="1">
          <mxGeometry x="-1213" y="1097" width="80" height="80" as="geometry" />
        </mxCell>
        <mxCell id="lPiCXAMXpNaBVZBqr2GV-20" style="edgeStyle=none;curved=1;rounded=0;orthogonalLoop=1;jettySize=auto;html=1;exitX=0.5;exitY=0;exitDx=0;exitDy=0;entryX=0.5;entryY=1;entryDx=0;entryDy=0;fontSize=12;startSize=8;endSize=8;" edge="1" parent="1" source="lPiCXAMXpNaBVZBqr2GV-21" target="lPiCXAMXpNaBVZBqr2GV-26">
          <mxGeometry relative="1" as="geometry" />
        </mxCell>
        <mxCell id="lPiCXAMXpNaBVZBqr2GV-21" value="&lt;span style=&quot;font-size: 16px;&quot;&gt;patient 10&lt;/span&gt;" style="whiteSpace=wrap;html=1;aspect=fixed;" vertex="1" parent="1">
          <mxGeometry x="-1193" y="663" width="80" height="80" as="geometry" />
        </mxCell>
        <mxCell id="lPiCXAMXpNaBVZBqr2GV-22" style="edgeStyle=none;curved=1;rounded=0;orthogonalLoop=1;jettySize=auto;html=1;exitX=0.5;exitY=0;exitDx=0;exitDy=0;fontSize=12;startSize=8;endSize=8;entryX=0;entryY=1;entryDx=0;entryDy=0;" edge="1" parent="1" source="lPiCXAMXpNaBVZBqr2GV-23" target="lPiCXAMXpNaBVZBqr2GV-4">
          <mxGeometry relative="1" as="geometry" />
        </mxCell>
        <mxCell id="lPiCXAMXpNaBVZBqr2GV-23" value="&lt;span style=&quot;font-size: 16px;&quot;&gt;patient 2&lt;/span&gt;" style="whiteSpace=wrap;html=1;aspect=fixed;" vertex="1" parent="1">
          <mxGeometry x="-1292" y="881" width="80" height="80" as="geometry" />
        </mxCell>
        <mxCell id="lPiCXAMXpNaBVZBqr2GV-24" value="&lt;span style=&quot;font-size: 16px;&quot;&gt;ward 5&lt;/span&gt;" style="ellipse;whiteSpace=wrap;html=1;aspect=fixed;" vertex="1" parent="1">
          <mxGeometry x="-1108" y="771" width="80" height="80" as="geometry" />
        </mxCell>
        <mxCell id="lPiCXAMXpNaBVZBqr2GV-25" value="&lt;span style=&quot;font-size: 16px;&quot;&gt;ward 4&lt;/span&gt;" style="ellipse;whiteSpace=wrap;html=1;aspect=fixed;" vertex="1" parent="1">
          <mxGeometry x="-1292" y="538" width="80" height="80" as="geometry" />
        </mxCell>
        <mxCell id="lPiCXAMXpNaBVZBqr2GV-26" value="&lt;span style=&quot;font-size: 16px;&quot;&gt;ward 9&lt;/span&gt;" style="ellipse;whiteSpace=wrap;html=1;aspect=fixed;" vertex="1" parent="1">
          <mxGeometry x="-1200" y="538" width="80" height="80" as="geometry" />
        </mxCell>
        <mxCell id="lPiCXAMXpNaBVZBqr2GV-27" value="&lt;span style=&quot;font-size: 16px;&quot;&gt;ward 8&lt;/span&gt;" style="ellipse;whiteSpace=wrap;html=1;aspect=fixed;" vertex="1" parent="1">
          <mxGeometry x="-1101" y="990" width="80" height="80" as="geometry" />
        </mxCell>
        <mxCell id="lPiCXAMXpNaBVZBqr2GV-28" style="edgeStyle=none;curved=1;rounded=0;orthogonalLoop=1;jettySize=auto;html=1;exitX=0.5;exitY=0;exitDx=0;exitDy=0;entryX=0.5;entryY=1;entryDx=0;entryDy=0;fontSize=12;startSize=8;endSize=8;" edge="1" parent="1" source="lPiCXAMXpNaBVZBqr2GV-29" target="lPiCXAMXpNaBVZBqr2GV-30">
          <mxGeometry relative="1" as="geometry" />
        </mxCell>
        <mxCell id="lPiCXAMXpNaBVZBqr2GV-29" value="&lt;span style=&quot;font-size: 16px;&quot;&gt;patient 8&lt;/span&gt;" style="whiteSpace=wrap;html=1;aspect=fixed;" vertex="1" parent="1">
          <mxGeometry x="-989" y="1095" width="80" height="80" as="geometry" />
        </mxCell>
        <mxCell id="lPiCXAMXpNaBVZBqr2GV-30" value="&lt;span style=&quot;font-size: 16px;&quot;&gt;ward 7&lt;/span&gt;" style="ellipse;whiteSpace=wrap;html=1;aspect=fixed;" vertex="1" parent="1">
          <mxGeometry x="-987" y="990" width="80" height="80" as="geometry" />
        </mxCell>
      </root>
    </mxGraphModel>
  </diagram>
</mxfile>
